<svg xmlns="http://www.w3.org/2000/svg" viewBox="0 0 24 24" fill="currentColor">
  <path d="M11.572 0c-.176 0-.31.001-.358.007a19.76 19.76 0 01-.364.033C7.443.346 4.25 2.185 2.228 5.012a11.875 11.875 0 00-2.119 5.243c-.096.659-.108.854-.108 1.747s.012 1.089.108 1.748c.652 4.506 3.86 8.292 8.209 9.695.779.25 1.6.422 2.534.525.363.04 1.935.04 2.299 0 1.611-.178 2.977-.577 4.323-1.264.207-.106.247-.134.219-.158-.02-.013-.9-1.193-1.955-2.62l-1.919-2.592-2.404-3.558a338.739 338.739 0 00-2.422-3.556c-.009-.002-.018 1.579-.023 3.51-.007 3.38-.01 3.515-.052 3.595a.426.426 0 01-.206.214c-.075.037-.14.044-.495.044H7.81l-.108-.068a.438.438 0 01-.157-.171l-.05-.106.006-4.703.007-4.705.072-.092a.645.645 0 01.174-.143c.096-.047.134-.051.54-.051.478 0 .558.018.682.154.035.038 1.337 1.999 2.895 4.361a10760.433 10760.433 0 004.735 7.17l1.9 2.879.096-.063a12.317 12.317 0 002.466-2.163 11.944 11.944 0 002.824-6.134c.096-.66.108-.854.108-1.748 0-.893-.012-1.088-.108-1.747C19.146 4.318 16.926 1.669 13.94.445 13.114.18 12.309.036 11.572 0z"/>
  <path fill="#fff" d="M19.06 13.362c0-.233-.007-.31-.023-.31-.01 0-.651.557-1.425 1.237l-1.41 1.234-.018-.02c-.007-.01-.621-.92-1.364-2.023l-1.351-2.004 1.348-1.341c.742-.737 1.348-1.35 1.348-1.362 0-.013-.45-.013-.999-.013h-.999l-1.067 1.069c-.587.588-1.069 1.075-1.07 1.082-.002.007.48.726 1.07 1.598a473.176 473.176 0 001.067 1.586l.01.012 1.322 1.309c.728.72 1.322 1.31 1.322 1.31s.45 0 .999 0h.999z"/>
</svg>
