<svg width="400" height="300" viewBox="0 0 400 300" xmlns="http://www.w3.org/2000/svg">
  <defs>
    <linearGradient id="grad3" x1="0%" y1="0%" x2="100%" y2="100%">
      <stop offset="0%" style="stop-color:#4facfe;stop-opacity:1" />
      <stop offset="100%" style="stop-color:#00f2fe;stop-opacity:1" />
    </linearGradient>
  </defs>
  <rect width="400" height="300" fill="url(#grad3)"/>
  <rect x="50" y="50" width="300" height="40" rx="20" fill="rgba(255,255,255,0.3)" stroke="rgba(255,255,255,0.5)" stroke-width="2"/>
  <circle cx="80" cy="70" r="6" fill="rgba(255,255,255,0.8)"/>
  <rect x="100" y="64" width="200" height="12" rx="6" fill="rgba(255,255,255,0.4)"/>
  <circle cx="330" cy="70" r="8" fill="rgba(255,255,255,0.6)"/>
  
  <rect x="70" y="120" width="80" height="80" rx="8" fill="rgba(255,255,255,0.2)"/>
  <rect x="170" y="120" width="80" height="80" rx="8" fill="rgba(255,255,255,0.2)"/>
  <rect x="270" y="120" width="80" height="80" rx="8" fill="rgba(255,255,255,0.2)"/>
  
  <circle cx="110" cy="150" r="12" fill="rgba(255,255,255,0.5)"/>
  <circle cx="210" cy="150" r="12" fill="rgba(255,255,255,0.5)"/>
  <circle cx="310" cy="150" r="12" fill="rgba(255,255,255,0.5)"/>
  
  <rect x="85" y="170" width="50" height="4" rx="2" fill="rgba(255,255,255,0.4)"/>
  <rect x="185" y="170" width="50" height="4" rx="2" fill="rgba(255,255,255,0.4)"/>
  <rect x="285" y="170" width="50" height="4" rx="2" fill="rgba(255,255,255,0.4)"/>
  
  <rect x="85" y="180" width="30" height="4" rx="2" fill="rgba(255,255,255,0.3)"/>
  <rect x="185" y="180" width="40" height="4" rx="2" fill="rgba(255,255,255,0.3)"/>
  <rect x="285" y="180" width="35" height="4" rx="2" fill="rgba(255,255,255,0.3)"/>
  
  <text x="200" y="250" text-anchor="middle" fill="rgba(255,255,255,0.9)" font-family="Arial, sans-serif" font-size="14" font-weight="bold">Dashboard</text>
</svg>
